# xmcd
#
# Track frame offsets: 
#        150
#        10918
#        22704
#        33858
#        45468
#        55947
#        66104
#        76500
#        86107
#        98617
#        109085
#        118128
#        129184
#        138338
#        148206
#        158478
#        169270
#        180194
#        191351
#        201773
#        212959
#        222244
#        233041
#        242267
#        252630
#
# Disc length: 3543 seconds
#
# Revision: 0
# Processed by: cddbd v1.5.2PL0 Copyright (c) Steve Scherf et al.
# Submitted via: ExactAudioCopy v0.99pb5
#
DISCID=440dd519
DTITLE=The Stanley Brothers - Selected Cuts 1955-1956
DYEAR=2010
DGENRE=Bluegrass
TTITLE0=Memories of Mother
TTITLE1=Could You Love Me (One More Time)
TTITLE2=Nobody's Love is Like Mine
TTITLE3=I Just Got Wise
TTITLE4=Harbor of Love
TTITLE5=Blue Moon of Kentucky
TTITLE6=Calling from Heaven
TTITLE7=Close By
TTITLE8=Hard Times
TTITLE9=Baby Girl
TTITLE10=Say You'll Take Me Back
TTITLE11=I Worship You
TTITLE12=You're Still On My Mind
TTITLE13=I Hear My Savior Calling
TTITLE14=Just a Little Talk With Jesus
TTITLE15=So Blue
TTITLE16=You'd Better Get Right
TTITLE17=Tragic Love
TTITLE18=Lonesome and Blue
TTITLE19=Orange Blossom Special
TTITLE20=Clinch Mountain Blues
TTITLE21=Will He Wait a Little Longer
TTITLE22=Big Tilda
TTITLE23=Angel Band
TTITLE24=Who Will Call You Sweetheart
EXTD=
EXTT0=
EXTT1=
EXTT2=
EXTT3=
EXTT4=
EXTT5=
EXTT6=
EXTT7=
EXTT8=
EXTT9=
EXTT10=
EXTT11=
EXTT12=
EXTT13=
EXTT14=
EXTT15=
EXTT16=
EXTT17=
EXTT18=
EXTT19=
EXTT20=
EXTT21=
EXTT22=
EXTT23=
EXTT24=
PLAYORDER=
